<?xml version="1.0" encoding="UTF-8" standalone="no"?>
<!DOCTYPE svg PUBLIC "-//W3C//DTD SVG 1.1//EN"
 "http://www.w3.org/Graphics/SVG/1.1/DTD/svg11.dtd">
<!-- Generated by graphviz version 11.0.0 (20240428.1522)
 -->
<!-- Title: G Pages: 1 -->
<svg width="843pt" height="109pt"
 viewBox="0.00 0.00 843.20 108.95" xmlns="http://www.w3.org/2000/svg" xmlns:xlink="http://www.w3.org/1999/xlink">
<g id="graph0" class="graph" transform="scale(1 1) rotate(0) translate(21.6 87.35)">
<title>G</title>
<polygon fill="#111111" stroke="none" points="-21.6,21.6 -21.6,-87.35 821.6,-87.35 821.6,21.6 -21.6,21.6"/>
<!-- components/GroupSystems/GroupSystems.js -->
<g id="node1" class="node">
<title>components/GroupSystems/GroupSystems.js</title>
<path fill="none" stroke="#ff6c60" d="M307.33,-23.75C307.33,-23.75 30.42,-23.75 30.42,-23.75 26.46,-23.75 22.5,-19.79 22.5,-15.83 22.5,-15.83 22.5,-7.92 22.5,-7.92 22.5,-3.96 26.46,0 30.42,0 30.42,0 307.33,0 307.33,0 311.29,0 315.25,-3.96 315.25,-7.92 315.25,-7.92 315.25,-15.83 315.25,-15.83 315.25,-19.79 311.29,-23.75 307.33,-23.75"/>
<text text-anchor="middle" x="168.88" y="-6.45" font-family="Arial" font-size="14.00" fill="#ff6c60">components/GroupSystems/GroupSystems.js</text>
</g>
<!-- components/InventoryGroups/Modals/AddSystemsToGroupModal.js -->
<g id="node2" class="node">
<title>components/InventoryGroups/Modals/AddSystemsToGroupModal.js</title>
<path fill="none" stroke="#ff6c60" d="M792.08,-23.75C792.08,-23.75 381.67,-23.75 381.67,-23.75 377.71,-23.75 373.75,-19.79 373.75,-15.83 373.75,-15.83 373.75,-7.92 373.75,-7.92 373.75,-3.96 377.71,0 381.67,0 381.67,0 792.08,0 792.08,0 796.04,0 800,-3.96 800,-7.92 800,-7.92 800,-15.83 800,-15.83 800,-19.79 796.04,-23.75 792.08,-23.75"/>
<text text-anchor="middle" x="586.88" y="-6.45" font-family="Arial" font-size="14.00" fill="#ff6c60">components/InventoryGroups/Modals/AddSystemsToGroupModal.js</text>
</g>
<!-- components/GroupSystems/GroupSystems.js&#45;&gt;components/InventoryGroups/Modals/AddSystemsToGroupModal.js -->
<g id="edge1" class="edge">
<title>components/GroupSystems/GroupSystems.js&#45;&gt;components/InventoryGroups/Modals/AddSystemsToGroupModal.js</title>
<path fill="none" stroke="#757575" d="M315.66,-5.4C330.74,-5.26 346.3,-5.18 361.98,-5.14"/>
<polygon fill="#757575" stroke="#757575" points="361.9,-8.64 371.9,-5.13 361.89,-1.64 361.9,-8.64"/>
</g>
<!-- components/InventoryGroups/Modals/AddSystemsToGroupModal.js&#45;&gt;components/GroupSystems/GroupSystems.js -->
<g id="edge2" class="edge">
<title>components/InventoryGroups/Modals/AddSystemsToGroupModal.js&#45;&gt;components/GroupSystems/GroupSystems.js</title>
<path fill="none" stroke="#757575" d="M373.41,-18.62C357.85,-18.61 342.32,-18.55 327.17,-18.44"/>
<polygon fill="#757575" stroke="#757575" points="327.21,-14.94 317.18,-18.36 327.15,-21.94 327.21,-14.94"/>
</g>
<!-- routes/InventoryComponents/InventoryPageHeader.js -->
<g id="node3" class="node">
<title>routes/InventoryComponents/InventoryPageHeader.js</title>
<path fill="none" stroke="#ff6c60" d="M329.83,-65.75C329.83,-65.75 7.92,-65.75 7.92,-65.75 3.96,-65.75 0,-61.79 0,-57.83 0,-57.83 0,-49.92 0,-49.92 0,-45.96 3.96,-42 7.92,-42 7.92,-42 329.83,-42 329.83,-42 333.79,-42 337.75,-45.96 337.75,-49.92 337.75,-49.92 337.75,-57.83 337.75,-57.83 337.75,-61.79 333.79,-65.75 329.83,-65.75"/>
<text text-anchor="middle" x="168.88" y="-48.45" font-family="Arial" font-size="14.00" fill="#ff6c60">routes/InventoryComponents/InventoryPageHeader.js</text>
</g>
<!-- routes/InventoryPage.js -->
<g id="node4" class="node">
<title>routes/InventoryPage.js</title>
<path fill="none" stroke="#ff6c60" d="M657.83,-65.75C657.83,-65.75 515.92,-65.75 515.92,-65.75 511.96,-65.75 508,-61.79 508,-57.83 508,-57.83 508,-49.92 508,-49.92 508,-45.96 511.96,-42 515.92,-42 515.92,-42 657.83,-42 657.83,-42 661.79,-42 665.75,-45.96 665.75,-49.92 665.75,-49.92 665.75,-57.83 665.75,-57.83 665.75,-61.79 661.79,-65.75 657.83,-65.75"/>
<text text-anchor="middle" x="586.88" y="-48.45" font-family="Arial" font-size="14.00" fill="#ff6c60">routes/InventoryPage.js</text>
</g>
<!-- routes/InventoryComponents/InventoryPageHeader.js&#45;&gt;routes/InventoryPage.js -->
<g id="edge3" class="edge">
<title>routes/InventoryComponents/InventoryPageHeader.js&#45;&gt;routes/InventoryPage.js</title>
<path fill="none" stroke="#757575" d="M338.18,-47.24C392.19,-46.93 449.92,-47.25 496.04,-48.21"/>
<polygon fill="#757575" stroke="#757575" points="495.92,-51.7 506,-48.43 496.08,-44.71 495.92,-51.7"/>
</g>
<!-- routes/InventoryPage.js&#45;&gt;routes/InventoryComponents/InventoryPageHeader.js -->
<g id="edge4" class="edge">
<title>routes/InventoryPage.js&#45;&gt;routes/InventoryComponents/InventoryPageHeader.js</title>
<path fill="none" stroke="#757575" d="M507.51,-59.29C462.81,-60.36 404.83,-60.79 349.56,-60.57"/>
<polygon fill="#757575" stroke="#757575" points="349.71,-57.07 339.69,-60.52 349.68,-64.07 349.71,-57.07"/>
</g>
</g>
</svg>
